<svg xmlns="http://www.w3.org/2000/svg" role="img" viewBox="6.49 207.49 494.52 88.52"><path fill="#CB569E" d="M0 0 C1.25554687 -0.01417969 2.51109375 -0.02835938 3.8046875 -0.04296875 C7.125 0.1875 7.125 0.1875 10.125 2.1875 C11.11508294 4.54824689 11.96620738 6.82362965 12.75 9.25 C13.88280139 13.54901508 13.88280139 13.54901508 16.125 17.1875 C16.46273438 16.04410156 16.80046875 14.90070313 17.1484375 13.72265625 C17.59855307 12.23164843 18.04909603 10.74076959 18.5 9.25 C18.83257812 8.11788086 18.83257812 8.11788086 19.171875 6.96289062 C19.76462452 5.01902088 20.43951172 3.10063548 21.125 1.1875 C24.17482258 -0.33741129 27.34622539 0.04388566 30.6875 0.0625 C31.38552734 0.05863281 32.08355469 0.05476562 32.80273438 0.05078125 C37.99836006 0.06086006 37.99836006 0.06086006 39.125 1.1875 C40.42629935 9.81463274 40.45951671 18.54289926 40.6875 27.25 C40.73077992 28.79883766 40.77439692 30.34766594 40.81835938 31.89648438 C40.92446066 35.66005932 41.02599536 39.42373195 41.125 43.1875 C39.70956585 43.38408808 38.29255969 43.56937546 36.875 43.75 C35.69164062 43.90662109 35.69164062 43.90662109 34.484375 44.06640625 C32.125 44.1875 32.125 44.1875 28.125 43.1875 C27.465 37.2475 26.805 31.3075 26.125 25.1875 C24.52097014 30.73615616 24.52097014 30.73615616 22.92407227 36.28686523 C21.23611111 42.07638889 21.23611111 42.07638889 20.125 43.1875 C17.155 43.1875 14.185 43.1875 11.125 43.1875 C9.145 36.9175 7.165 30.6475 5.125 24.1875 C4.795 30.1275 4.465 36.0675 4.125 42.1875 C-1.52531797 44.07093932 -3.36054115 44.29039177 -8.875 43.1875 C-8.97465302 32.25888548 -8.9372501 21.35708712 -8.4375 10.4375 C-8.39826416 9.52718018 -8.35902832 8.61686035 -8.31860352 7.67895508 C-7.93240872 -0.02789193 -7.61308903 0.03892172 0 0 Z" transform="translate(279.875 227.813)"/><path fill="#E44999" d="M0 0 C3.68320111 0.06693042 5.33950529 0.87278092 8.03125 3.35546875 C8.72226807 3.99081543 9.41328613 4.62616211 10.12524414 5.28076172 C14.59603107 9.57169754 19.00235407 13.92167259 23.375 18.3125 C24.34162902 19.27555913 25.3084249 20.23845081 26.27539062 21.20117188 C27.18353516 22.11060547 28.09167969 23.02003906 29.02734375 23.95703125 C29.85097412 24.78178955 30.67460449 25.60654785 31.52319336 26.45629883 C34.43258915 29.56235063 34.97611654 32.02589839 34.8972168 36.31469727 C34.33534778 38.98558921 33.42482704 40.08942791 31.58203125 42.08984375 C30.62901123 43.1272168 30.62901123 43.1272168 29.65673828 44.18554688 C25.36753705 48.65877324 21.01621174 53.06447133 16.625 57.4375 C15.66194087 58.40412902 14.69904919 59.3709249 13.73632812 60.33789062 C12.82689453 61.24603516 11.91746094 62.15417969 10.98046875 63.08984375 C10.15571045 63.91347412 9.33095215 64.73710449 8.48120117 65.58569336 C5.28221753 68.58213713 2.86897447 68.89131981 -1.5234375 68.859375 C-4.94256698 68.2567698 -6.49439052 66.13213933 -8.5625 63.5 C-10.07139469 60.48221063 -10.06276276 58.87677363 -9.5625 55.5 C-7.59903354 52.48755831 -5.091963 50.04204739 -2.5625 47.5 C-1.81540771 46.74251465 -1.81540771 46.74251465 -1.05322266 45.96972656 C2.41711499 42.45253467 5.91776469 38.96771952 9.4375 35.5 C8.01829247 32.25904935 6.30441752 30.14164495 3.77734375 27.6796875 C3.06642578 26.97972656 2.35550781 26.27976563 1.62304688 25.55859375 C0.88119141 24.83800781 0.13933594 24.11742187 -0.625 23.375 C-2.09723193 21.93712439 -3.56739156 20.49712292 -5.03515625 19.0546875 C-5.68750244 18.42030762 -6.33984863 17.78592773 -7.01196289 17.13232422 C-9.29912696 14.72451774 -9.55492584 13.56690504 -9.9375 10.1875 C-9.47036625 5.59401813 -8.04209782 4.38552015 -4.5625 1.5 C-3.5625 0.5 -3.5625 0.5 0 0 Z" transform="translate(77.563 217.5)"/><path fill="#E83C88" d="M0 0 C3.83887836 0.89256088 5.72935906 1.99033396 8.4609375 4.8046875 C10.11571839 8.11424929 10.20872156 11.25428421 9.4609375 14.8046875 C7.53234362 17.88197366 5.05044914 20.2763825 2.4609375 22.8046875 C1.66945312 23.63097656 0.87796875 24.45726562 0.0625 25.30859375 C-4.3995389 29.92225533 -4.3995389 29.92225533 -6.5390625 31.8046875 C-7.1990625 31.8046875 -7.8590625 31.8046875 -8.5390625 31.8046875 C-8.02889809 35.95291694 -6.9778904 37.84577186 -3.9765625 40.72265625 C-2.90535156 41.76776367 -2.90535156 41.76776367 -1.8125 42.83398438 C-1.06226563 43.54619141 -0.31203125 44.25839844 0.4609375 44.9921875 C1.94206637 46.42114603 3.42132961 47.85204164 4.8984375 49.28515625 C5.55714844 49.91317139 6.21585938 50.54118652 6.89453125 51.18823242 C9.73974628 54.12435597 9.79053704 56.73623787 9.75390625 60.765625 C9.29838783 63.93603317 7.70778093 65.6239277 5.4609375 67.8046875 C2.18327823 69.44351714 -1.01272046 69.49337654 -4.5390625 68.8046875 C-7.31775745 67.10670191 -9.4084879 64.89527636 -11.62890625 62.53125 C-12.2589003 61.89230804 -12.88889435 61.25336609 -13.53797913 60.59506226 C-15.53704558 58.55799038 -17.5062687 56.49456118 -19.4765625 54.4296875 C-20.82696872 53.04771082 -22.1791653 51.66748119 -23.53320312 50.2890625 C-34.25097327 39.31715596 -34.25097327 39.31715596 -35.0390625 35.1796875 C-34.50259385 31.55852413 -34.07623782 30.93405748 -31.72265625 28.34375 C-31.08634277 27.64330566 -30.4500293 26.94286133 -29.79443359 26.22119141 C-28.6780249 25.02502197 -28.6780249 25.02502197 -27.5390625 23.8046875 C-26.68006348 22.87962402 -25.82106445 21.95456055 -24.93603516 21.00146484 C-22.52895394 18.42906197 -20.08512633 15.89496281 -17.6237793 13.37451172 C-16.60264759 12.32144406 -15.58966846 11.26041388 -14.5847168 10.19189453 C-5.1119137 0.13192789 -5.1119137 0.13192789 0 0 Z" transform="translate(51.54 217.195)"/><path fill="#E75774" d="M0 0 C3.63 0 7.26 0 11 0 C14.00945377 3.00945377 15.76004901 5.9745047 17.6875 9.6875 C18.780625 11.770625 19.87375 13.85375 21 16 C21.33 10.72 21.66 5.44 22 0 C30.49609375 -0.09765625 30.49609375 -0.09765625 33 0 C34 1 34 1 34.11352539 4.96899414 C34.1133662 6.74105607 34.10766785 8.5131226 34.09765625 10.28515625 C34.0962413 11.21597519 34.09482635 12.14679413 34.09336853 13.1058197 C34.08775172 16.09141191 34.0751964 19.07693029 34.0625 22.0625 C34.05748716 24.08137913 34.05292388 26.10025943 34.04882812 28.11914062 C34.03777683 33.07945572 34.02050095 38.03971532 34 43 C29.71 43 25.42 43 21 43 C18.36 38.05 15.72 33.1 13 28 C12.67 32.95 12.34 37.9 12 43 C3.375 44.125 3.375 44.125 0 43 C0 28.81 0 14.62 0 0 Z" transform="translate(175 228)"/><path fill="#AA54CD" d="M0 0 C4.51958025 4.09915418 8.23077949 9.19565307 8.6875 15.4375 C8.73777344 16.08203125 8.78804688 16.7265625 8.83984375 17.390625 C9.13894782 24.23412618 8.43328266 31.22534237 3.84765625 36.58984375 C-2.15877154 42.05938414 -6.61991291 42.7615285 -14.62890625 42.64453125 C-19.96572354 42.23281172 -23.01646008 39.97164332 -26.5625 36.1875 C-31.69167727 29.7424605 -32.05678313 22.39560425 -31.3125 14.4375 C-30.13027348 9.3375301 -28.04330544 5.16830544 -24.3125 1.4375 C-16.55075864 -3.18651613 -8.25933729 -3.89591382 0 0 Z M-15.5625 11.75 C-18.30251196 15.95787551 -18.10973852 20.55351627 -17.3125 25.4375 C-15.89329573 27.74228504 -15.89329573 27.74228504 -14.3125 29.4375 C-10.88019552 29.17356499 -10.88019552 29.17356499 -7.3125 28.4375 C-4.48290604 24.19310905 -4.66180301 20.42088668 -5.3125 15.4375 C-6.84242549 12.26874576 -6.84242549 12.26874576 -9.3125 10.4375 C-13.17078627 10.10158598 -13.17078627 10.10158598 -15.5625 11.75 Z" transform="translate(405.313 229.563)"/><path fill="#F35762" d="M0 0 C1.58206057 0.00667536 3.16410534 0.0186375 4.74609375 0.03515625 C5.55240234 0.03966797 6.35871094 0.04417969 7.18945312 0.04882812 C9.18753131 0.06065107 11.18557158 0.07858711 13.18359375 0.09765625 C15.82394295 7.57725744 17.86033261 15.17951762 19.82788086 22.85644531 C20.37561747 24.99027946 20.93068699 27.1221184 21.48632812 29.25390625 C21.8376778 30.61577244 22.18860484 31.97774774 22.5390625 33.33984375 C23.01315552 35.17844971 23.01315552 35.17844971 23.49682617 37.05419922 C24.18359375 40.09765625 24.18359375 40.09765625 24.18359375 43.09765625 C22.41360695 43.29298586 20.64255096 43.47864507 18.87109375 43.66015625 C17.39189453 43.81677734 17.39189453 43.81677734 15.8828125 43.9765625 C13.18359375 44.09765625 13.18359375 44.09765625 10.18359375 43.09765625 C9.453125 41.03125 9.453125 41.03125 8.99609375 38.53515625 C8.75826172 37.29572266 8.75826172 37.29572266 8.515625 36.03125 C8.40605469 35.39316406 8.29648438 34.75507813 8.18359375 34.09765625 C5.21359375 34.09765625 2.24359375 34.09765625 -0.81640625 34.09765625 C-1.47640625 37.06765625 -2.13640625 40.03765625 -2.81640625 43.09765625 C-6.77640625 43.09765625 -10.73640625 43.09765625 -14.81640625 43.09765625 C-13.41072096 34.63410608 -11.46645986 26.37220723 -9.30249023 18.078125 C-8.74613419 15.94282704 -8.19791961 13.80554525 -7.65039062 11.66796875 C-7.2986523 10.30847071 -6.94645635 8.94909097 -6.59375 7.58984375 C-6.27656006 6.3663623 -5.95937012 5.14288086 -5.63256836 3.88232422 C-4.52865661 0.11588169 -4.52865661 0.11588169 0 0 Z M3.18359375 16.09765625 C2.52359375 19.06765625 1.86359375 22.03765625 1.18359375 25.09765625 C2.83359375 25.09765625 4.48359375 25.09765625 6.18359375 25.09765625 C5.52359375 22.12765625 4.86359375 19.15765625 4.18359375 16.09765625 C3.85359375 16.09765625 3.52359375 16.09765625 3.18359375 16.09765625 Z" transform="translate(138.816 227.902)"/><path fill="#D95688" d="M0 0 C5.94 0 11.88 0 18 0 C19.42864086 5.47985815 20.85430872 10.9603139 22.27246094 16.44287109 C22.75574794 18.30758049 23.24076185 20.1718432 23.72753906 22.03564453 C24.42707971 24.71531351 25.12038622 27.39652954 25.8125 30.078125 C26.03123779 30.91055725 26.24997559 31.7429895 26.4753418 32.60064697 C26.67554932 33.38115417 26.87575684 34.16166138 27.08203125 34.96582031 C27.25968018 35.64976868 27.4373291 36.33371704 27.62036133 37.03839111 C28 39 28 39 28 43 C26.41870971 43.22331199 24.83478911 43.42804644 23.25 43.625 C22.36828125 43.74101562 21.4865625 43.85703125 20.578125 43.9765625 C17.69858702 44.00274012 16.30698133 43.71974972 14 42 C13.16113831 39.32209537 13.18233586 36.8262059 13 34 C8.545 34.495 8.545 34.495 4 35 C3.01 37.64 2.02 40.28 1 43 C-2.63 43 -6.26 43 -10 43 C-9.44341769 37.02635852 -8.5222065 31.46166095 -6.93359375 25.68359375 C-6.73524429 24.94166275 -6.53689484 24.19973175 -6.33253479 23.43531799 C-5.7069856 21.10101163 -5.07242754 18.7692708 -4.4375 16.4375 C-4.00786116 14.84065674 -3.57881946 13.2436527 -3.15039062 11.64648438 C-2.10823568 7.76208866 -1.05389191 3.88130293 0 0 Z M8 16 C6.50178941 19.37097383 6 21.20442119 6 25 C7.32 25 8.64 25 10 25 C9.67 22.03 9.34 19.06 9 16 C8.67 16 8.34 16 8 16 Z" transform="translate(231 228)"/><path fill="#B855B8" d="M0 0 C1.02095523 2.35999701 1.09196987 3.647556 0.44140625 6.140625 C-0.37239583 8.09375 -1.18619792 10.046875 -2 12 C-5.3 11.34 -8.6 10.68 -12 10 C-10.73390452 13.79828645 -9.58706633 13.99115206 -6.125 15.8125 C-1.80046176 18.32073218 0.57335935 20.00675772 2 25 C2.56138108 30.23955679 1.85632372 33.56777353 -1 38 C-6.43915216 42.90850317 -9.82840722 43.28291505 -17.0078125 43.22265625 C-20.6376073 42.95255403 -23.03155727 42.10915668 -26 40 C-28.80541099 35.79188352 -27.85569482 33.90079759 -27 29 C-26.67 28.34 -26.34 27.68 -26 27 C-22.62456153 27.56257308 -20.04116865 28.47941568 -17 30 C-16.01 30 -15.02 30 -14 30 C-14 29.34 -14 28.68 -14 28 C-15.57134037 27.04776184 -17.1838211 26.16295465 -18.8125 25.3125 C-22.33512923 23.24682224 -23.89268905 22.16249943 -26.1875 18.6875 C-27.45210254 12.94815 -27.26915695 8.33524878 -24.4375 3.125 C-17.29303096 -3.10351147 -8.72850071 -2.90950024 0 0 Z" transform="translate(361 229)"/><path fill="#9D57DC" d="M0 0 C3.97915159 -0.02886984 7.95827653 -0.04675406 11.9375 -0.0625 C13.07380859 -0.07087891 14.21011719 -0.07925781 15.38085938 -0.08789062 C16.46044922 -0.09111328 17.54003906 -0.09433594 18.65234375 -0.09765625 C20.15269165 -0.10551147 20.15269165 -0.10551147 21.68334961 -0.11352539 C24 0 24 0 25 1 C25.09823937 2.66429051 25.12973631 4.33281931 25.125 6 C25.12886719 7.36125 25.12886719 7.36125 25.1328125 8.75 C25 11 25 11 24 12 C22.14712498 12.07226502 20.29166122 12.0838122 18.4375 12.0625 C17.42558594 12.05347656 16.41367187 12.04445312 15.37109375 12.03515625 C14.19740234 12.01775391 14.19740234 12.01775391 13 12 C13 13.98 13 15.96 13 18 C15.64 18 18.28 18 21 18 C21 21.3 21 24.6 21 28 C18.36 28 15.72 28 13 28 C13.01160156 29.07121094 13.02320313 30.14242188 13.03515625 31.24609375 C13.04453299 32.64322743 13.05363331 34.04036299 13.0625 35.4375 C13.07087891 36.14455078 13.07925781 36.85160156 13.08789062 37.58007812 C13.09653588 39.38693559 13.05220011 41.19387603 13 43 C12 44 12 44 9.53125 44.1328125 C8.03078125 44.12894531 8.03078125 44.12894531 6.5 44.125 C5.4996875 44.12757813 4.499375 44.13015625 3.46875 44.1328125 C1 44 1 44 0 43 C-0.09268999 41.64905018 -0.11747326 40.29332909 -0.11352539 38.93920898 C-0.11344986 38.07839218 -0.11337433 37.21757538 -0.11329651 36.33067322 C-0.10813522 35.39526199 -0.10297394 34.45985077 -0.09765625 33.49609375 C-0.0962413 32.54307877 -0.09482635 31.59006378 -0.09336853 30.60816956 C-0.08775152 27.55124835 -0.07519616 24.49439923 -0.0625 21.4375 C-0.05748719 19.37044376 -0.05292391 17.30338638 -0.04882812 15.23632812 C-0.03777656 10.15752412 -0.02050055 5.0787743 0 0 Z" transform="translate(426 228)"/><path fill="#9354F1" d="M0 0 C1.20970459 0.00523682 2.41940918 0.01047363 3.66577148 0.01586914 C4.97094727 0.0190918 6.27612305 0.02231445 7.62084961 0.02563477 C9.00952213 0.03399138 10.39819401 0.04245634 11.78686523 0.05102539 C13.17944179 0.05603873 14.57202005 0.06060193 15.96459961 0.06469727 C19.38456394 0.07653105 22.80444367 0.09301659 26.22436523 0.11352539 C26.91380412 4.44932994 27.38922424 7.84237571 26.22436523 12.11352539 C23.58436523 12.11352539 20.94436523 12.11352539 18.22436523 12.11352539 C18.22436523 22.34352539 18.22436523 32.57352539 18.22436523 43.11352539 C14.33272176 44.41073988 11.33007298 44.24386532 7.22436523 44.11352539 C6.56436523 43.78352539 5.90436523 43.45352539 5.22436523 43.11352539 C5.22436523 32.88352539 5.22436523 22.65352539 5.22436523 12.11352539 C2.58436523 12.11352539 -0.05563477 12.11352539 -2.77563477 12.11352539 C-3.77563477 11.11352539 -3.77563477 11.11352539 -3.90844727 8.86352539 C-3.90586914 7.95602539 -3.90329102 7.04852539 -3.90063477 6.11352539 C-3.90321289 5.20602539 -3.90579102 4.29852539 -3.90844727 3.36352539 C-3.71090023 0.01684615 -3.39264563 0.13876156 0 0 Z" transform="translate(464.776 227.886)"/><path fill="#8B0DE5" d="M0 0 C3.04788558 0.93888041 4.35819578 2.06701422 6.57568359 4.33520508 C7.27693359 5.04483398 7.97818359 5.75446289 8.70068359 6.4855957 C9.41740234 7.23131836 10.13412109 7.97704102 10.87255859 8.74536133 C11.60474609 9.4872168 12.33693359 10.22907227 13.09130859 10.9934082 C19.97682947 18.02556517 19.97682947 18.02556517 19.91552734 24.76879883 C19.46000893 27.939207 17.86940202 29.62710153 15.62255859 31.80786133 C12.3898639 33.42420867 9.11822568 33.38048783 5.62255859 32.80786133 C3.26595846 31.18484063 1.70856297 29.889381 -0.18994141 27.84692383 C-0.68913086 27.34115814 -1.18832031 26.83539246 -1.70263672 26.31430054 C-2.74710225 25.24909423 -3.78201841 24.17444799 -4.80761719 23.09106445 C-6.38297315 21.42701815 -7.98405923 19.79166776 -9.59228516 18.15942383 C-17.37744141 10.16814109 -17.37744141 10.16814109 -17.37744141 7.80786133 C-16.38744141 7.78723633 -15.39744141 7.76661133 -14.37744141 7.74536133 C-9.80509594 7.16224844 -7.44871838 4.43870396 -4.36962891 1.20629883 C-2.37744141 -0.19213867 -2.37744141 -0.19213867 0 0 Z" transform="translate(41.377 253.192)"/><path fill="#C256A8" d="M0 0 C0.69802734 -0.00386719 1.39605469 -0.00773438 2.11523438 -0.01171875 C7.31086006 -0.00163994 7.31086006 -0.00163994 8.4375 1.125 C9.73879935 9.75213274 9.77201671 18.48039926 10 27.1875 C10.04327992 28.73633766 10.08689692 30.28516594 10.13085938 31.83398438 C10.23696066 35.59755932 10.33849536 39.36123195 10.4375 43.125 C9.00109829 43.32073608 7.56330496 43.50627816 6.125 43.6875 C4.92423828 43.84412109 4.92423828 43.84412109 3.69921875 44.00390625 C1.4375 44.125 1.4375 44.125 -1.5625 43.125 C-1.8925 35.535 -2.2225 27.945 -2.5625 20.125 C-3.5525 20.455 -4.5425 20.785 -5.5625 21.125 C-5.5625 20.465 -5.5625 19.805 -5.5625 19.125 C-7.5425 19.125 -9.5225 19.125 -11.5625 19.125 C-12.9059821 12.52972424 -12.30862727 7.33100569 -9.5625 1.125 C-6.51267742 -0.39991129 -3.34127461 -0.01861434 0 0 Z" transform="translate(310.563 227.875)"/><path fill="#6B0BF5" d="M0 0 C5.83788914 0.14414541 8.53326388 3.50161028 12.4375 7.5 C13.64165502 8.69559792 14.84753298 9.88946189 16.0546875 11.08203125 C19.53758703 14.53329203 22.9922368 18.01118712 26.4375 21.5 C25.9425 22.985 25.9425 22.985 25.4375 24.5 C24.550625 24.7475 23.66375 24.995 22.75 25.25 C18.28746142 26.93397682 16.2524216 29.76673518 13.4375 33.5 C9.17286061 32.99365544 7.24942471 31.80172537 4.265625 28.75390625 C3.51925781 27.99916016 2.77289063 27.24441406 2.00390625 26.46679688 C1.23949219 25.67337891 0.47507812 24.87996094 -0.3125 24.0625 C-1.09238281 23.27294922 -1.87226562 22.48339844 -2.67578125 21.66992188 C-9.41589564 14.7950052 -9.41589564 14.7950052 -9.9375 10.1875 C-9.47036625 5.59401813 -8.04209782 4.38552015 -4.5625 1.5 C-3.5625 0.5 -3.5625 0.5 0 0 Z" transform="translate(77.563 217.5)"/><path fill="#DB2FA8" d="M0 0 C3.03978021 0.68164768 4.80055419 2.23591662 6.93359375 4.43359375 C8.58517577 7.73675779 8.70877603 10.8925611 7.93359375 14.43359375 C5.93176098 17.45512686 3.53416547 19.92212085 0.93359375 22.43359375 C0.4025 22.97886719 -0.12859375 23.52414063 -0.67578125 24.0859375 C-2.37946722 25.73698148 -3.83432419 26.62192755 -6.06640625 27.43359375 C-8.19140625 27.24609375 -8.19140625 27.24609375 -10.06640625 26.43359375 C-10.72640625 25.44359375 -11.38640625 24.45359375 -12.06640625 23.43359375 C-12.63359375 23.02882812 -13.20078125 22.6240625 -13.78515625 22.20703125 C-15.06640625 20.43359375 -15.06640625 20.43359375 -14.66015625 17.03515625 C-14.31422363 15.70464616 -13.94878926 14.37908976 -13.56640625 13.05859375 C-13.40398438 12.39859375 -13.2415625 11.73859375 -13.07421875 11.05859375 C-11.09958874 3.87551935 -7.54364988 -0.47058685 0 0 Z" transform="translate(53.066 217.566)"/><path fill="#D921A3" d="M0 0 C3.13307558 2.96016854 4.08244505 4.48835163 4.6875 8.875 C4.64357421 13.71562182 2.33745855 16.06761821 -0.93359375 19.41796875 C-1.55363281 20.02253906 -2.17367187 20.62710937 -2.8125 21.25 C-3.29847656 21.78238281 -3.78445312 22.31476563 -4.28515625 22.86328125 C-5.5625 24.25 -5.5625 24.25 -7.8125 26.25 C-8.8025 26.25 -9.7925 26.25 -10.8125 26.25 C-11.1425 24.6 -11.4725 22.95 -11.8125 21.25 C-11.1525 21.25 -10.4925 21.25 -9.8125 21.25 C-11.20743652 16.81156561 -13.33148201 14.3065036 -16.8125 11.25 C-17.8025 10.92 -18.7925 10.59 -19.8125 10.25 C-19.8125 9.59 -19.8125 8.93 -19.8125 8.25 C-18.8225 7.92 -17.8325 7.59 -16.8125 7.25 C-15.65971835 5.97998632 -14.56042825 4.66058465 -13.5 3.3125 C-11.30924819 0.77269758 -9.688506 -0.82749625 -6.8125 -2.625 C-3.26270218 -2.77290824 -2.65908172 -2.19875189 0 0 Z" transform="translate(107.813 242.75)"/><path fill="#CF598D" d="M0 0 C5.61 0 11.22 0 17 0 C18.43032727 5.47937075 19.85431422 10.96033517 21.27246094 16.44287109 C21.75574794 18.30758049 22.24076185 20.1718432 22.72753906 22.03564453 C23.42707971 24.71531351 24.12038622 27.39652954 24.8125 30.078125 C25.14060669 31.32677338 25.14060669 31.32677338 25.4753418 32.60064697 C25.67554932 33.38115417 25.87575684 34.16166138 26.08203125 34.96582031 C26.25968018 35.64976868 26.4373291 36.33371704 26.62036133 37.03839111 C27 39 27 39 27 43 C25.41870971 43.22331199 23.83478911 43.42804644 22.25 43.625 C21.36828125 43.74101562 20.4865625 43.85703125 19.578125 43.9765625 C16.69858702 44.00274012 15.30698133 43.71974972 13 42 C12.16113831 39.32209537 12.18233586 36.8262059 12 34 C7.545 34.495 7.545 34.495 3 35 C2.01 37.64 1.02 40.28 0 43 C-0.99 42.67 -1.98 42.34 -3 42 C-2.67 40.68 -2.34 39.36 -2 38 C-1.01 38 -0.02 38 1 38 C1.33 36.35 1.66 34.7 2 33 C5.96 33 9.92 33 14 33 C14.33 33.66 14.66 34.32 15 35 C15 33.35 15 31.7 15 30 C14.34 30 13.68 30 13 30 C13.66 28.02 14.32 26.04 15 24 C15.33 24.99 15.66 25.98 16 27 C16.28875 26.030625 16.5775 25.06125 16.875 24.0625 C18 21 18 21 20 20 C19.67 19.67 19.34 19.34 19 19 C18.95907063 16.66702567 18.95758277 14.33294775 19 12 C18.34 12 17.68 12 17 12 C16.67 8.37 16.34 4.74 16 1 C10.72 1 5.44 1 0 1 C0 0.67 0 0.34 0 0 Z" transform="translate(232 228)"/><path fill="#F9575B" d="M0 0 C0.28875 0.61875 0.5775 1.2375 0.875 1.875 C1.93720042 4.13325765 1.93720042 4.13325765 4 6 C2.68 6 1.36 6 0 6 C0.66 7.98 1.32 9.96 2 12 C4.475 12.495 4.475 12.495 7 13 C6.34 13.66 5.68 14.32 5 15 C4.3574765 17.06874034 4.3574765 17.06874034 4 19 C2.35 19.33 0.7 19.66 -1 20 C-1.12117187 20.56589844 -1.24234375 21.13179688 -1.3671875 21.71484375 C-1.53476563 22.44832031 -1.70234375 23.18179687 -1.875 23.9375 C-2.03742188 24.66839844 -2.19984375 25.39929688 -2.3671875 26.15234375 C-3 28 -3 28 -5 29 C-8.00474497 29.13559318 -10.99068847 29.04299016 -14 29 C-13.34 25.37 -12.68 21.74 -12 18 C-11.34 18 -10.68 18 -10 18 C-9.67 15.69 -9.34 13.38 -9 11 C-8.34 11 -7.68 11 -7 11 C-6.855625 9.906875 -6.71125 8.81375 -6.5625 7.6875 C-6 4 -6 4 -5 1 C-3 0 -3 0 0 0 Z" transform="translate(138 242)"/><path fill="#B112CD" d="M0 0 C11.38155946 9.24956705 11.38155946 9.24956705 12.4453125 13.98046875 C12.65351016 17.67944718 12.11248142 19.82377911 10.125 22.9375 C7.07109477 25.90158449 4.61518818 26.61700848 0.30859375 26.6328125 C-4.59290569 25.28925428 -7.79370537 20.74067707 -11 17 C-8.92446352 16.4465236 -7.15634036 16 -5 16 C-5 17.65 -5 19.3 -5 21 C-2.4429149 18.77644774 -1.75829088 17.24981807 -1 14 C-0.34 13.67 0.32 13.34 1 13 C0.34 12.67 -0.32 12.34 -1 12 C-0.6875 10.0625 -0.6875 10.0625 0 8 C0.99 7.67 1.98 7.34 3 7 C2.505 6.21625 2.01 5.4325 1.5 4.625 C0 2 0 2 0 0 Z" transform="translate(49 260)"/><path fill="#930EE1" d="M0 0 C3.42754467 0.58110671 5.04538661 1.68553624 7.453125 4.16015625 C8.071875 4.78857422 8.690625 5.41699219 9.328125 6.06445312 C9.96234375 6.72380859 10.5965625 7.38316406 11.25 8.0625 C11.8996875 8.72572266 12.549375 9.38894531 13.21875 10.07226562 C14.8194676 11.70829317 16.41276193 13.35090912 18 15 C17.67 15.99 17.34 16.98 17 18 C16.113125 18.2475 15.22625 18.495 14.3125 18.75 C9.84996142 20.43397682 7.8149216 23.26673518 5 27 C1.75791433 26.64950425 0.38472296 26.43778819 -1.8125 23.9375 C-2.204375 23.298125 -2.59625 22.65875 -3 22 C-1.35 21.67 0.3 21.34 2 21 C1.83242187 20.39671875 1.66484375 19.7934375 1.4921875 19.171875 C1.28851563 18.37265625 1.08484375 17.5734375 0.875 16.75 C0.66617188 15.96109375 0.45734375 15.1721875 0.2421875 14.359375 C-0.04808802 11.53152959 0.73924849 10.48210453 2 8 C1.81972049 5.83856442 1.81972049 5.83856442 1.125 3.75 C0.568125 1.89375 0.568125 1.89375 0 0 Z" transform="translate(86 224)"/><path fill="#D2607D" d="M0 0 C8.49609375 -0.09765625 8.49609375 -0.09765625 11 0 C12 1 12 1 12.11352539 4.96899414 C12.1133662 6.74105607 12.10766785 8.5131226 12.09765625 10.28515625 C12.0962413 11.21597519 12.09482635 12.14679413 12.09336853 13.1058197 C12.08775172 16.09141191 12.0751964 19.07693029 12.0625 22.0625 C12.05748716 24.08137913 12.05292388 26.10025943 12.04882812 28.11914062 C12.03777683 33.07945572 12.02050095 38.03971532 12 43 C7.71 43 3.42 43 -1 43 C-3.64 37.72 -6.28 32.44 -9 27 C-8.01 27.33 -7.02 27.66 -6 28 C-4.94952356 30.31104818 -3.94992562 32.64583651 -3 35 C-2.34 35.66 -1.68 36.32 -1 37 C-1.33 37.66 -1.66 38.32 -2 39 C-0.68 39 0.64 39 2 39 C2.33 38.01 2.66 37.02 3 36 C3.66 36 4.32 36 5 36 C5.33 36.99 5.66 37.98 6 39 C6.495 38.505 6.495 38.505 7 38 C7 37.34 7 36.68 7 36 C7.66 36 8.32 36 9 36 C9.33 24.45 9.66 12.9 10 1 C7.03 1 4.06 1 1 1 C1 6.61 1 12.22 1 18 C0.67 18 0.34 18 0 18 C0 12.06 0 6.12 0 0 Z" transform="translate(197 228)"/><path fill="#E0439E" d="M0 0 C1 2 1 2 0.37109375 4.05859375 C-0.25076526 5.64316335 -0.8757623 7.22650506 -1.50390625 8.80859375 C-1.66761719 9.53175781 -1.83132812 10.25492188 -2 11 C-0.33075929 14.04134491 -0.33075929 14.04134491 2 15 C1.67 15.66 1.34 16.32 1 17 C3.76264289 17.59732819 6.16032769 18 9 18 C7.37660195 19.70884005 5.70680947 21.37446717 4 23 C3.34 23 2.68 23 2 23 C1.95875 23.61875 1.9175 24.2375 1.875 24.875 C1.58625 25.57625 1.2975 26.2775 1 27 C-2.0625 28.25 -2.0625 28.25 -5 29 C-5 26.03 -5 23.06 -5 20 C-7.475 19.01 -7.475 19.01 -10 18 C-10 16.68 -10 15.36 -10 14 C-9.01 13.67 -8.02 13.34 -7 13 C-6.95875 11.96875 -6.9175 10.9375 -6.875 9.875 C-5.73072694 4.80750503 -3.85400704 3.36200614 0 0 Z" transform="translate(41 226)"/><path fill="#A856C2" d="M0 0 C1.23026927 4.01773252 0.32427317 6.0271805 -1 10 C-1.24038021 14.4870972 -0.85944721 18.59533304 0 23 C1.98 23 3.96 23 6 23 C6.33 22.34 6.66 21.68 7 21 C7.66 21 8.32 21 9 21 C9.33 16.71 9.66 12.42 10 8 C10.33 8 10.66 8 11 8 C11.04898437 8.75925781 11.09796875 9.51851562 11.1484375 10.30078125 C11.22320312 11.29464844 11.29796875 12.28851563 11.375 13.3125 C11.44460938 14.29863281 11.51421875 15.28476563 11.5859375 16.30078125 C11.83865472 19.21528433 11.83865472 19.21528433 14 22 C16.56282742 22.72965366 16.56282742 22.72965366 19 23 C17.768606 26.69418201 15.79208646 28.35109746 13 31 C13 29.35 13 27.7 13 26 C12.34 26 11.68 26 11 26 C10.34 27.32 9.68 28.64 9 30 C7.68 29.67 6.36 29.34 5 29 C5.33 29.66 5.66 30.32 6 31 C6.99 31.33 7.98 31.66 9 32 C9 32.66 9 33.32 9 34 C9.66 34.33 10.32 34.66 11 35 C5.67573221 34.35852195 3.79461122 32.19541922 0.515625 28.16796875 C-3.6563626 22.20030608 -3.69313007 15.03175437 -3 8 C-2.22411439 5.14761128 -1.22498165 2.7051678 0 0 Z" transform="translate(377 236)"/><path fill="#DE648E" d="M0 0 C0 0.99 0 1.98 0 3 C-1.33333333 4.33333333 -2.66666667 5.66666667 -4 7 C-4 7.99 -4 8.98 -4 10 C-4.825 10.804375 -5.65 11.60875 -6.5 12.4375 C-9.46554923 14.88052115 -9.46554923 14.88052115 -9 19 C-11.33333333 19 -13.66666667 19 -16 19 C-15.34 21.64 -14.68 24.28 -14 27 C-11.69 27 -9.38 27 -7 27 C-7 27.99 -7 28.98 -7 30 C-5.02 29.67 -3.04 29.34 -1 29 C-3.50729277 32.34305702 -4.71521579 32.95931654 -8.9375 33.5625 C-12.43058097 33.39957645 -13.02773 32.97758 -15.9375 30.625 C-18.03389799 27.9568571 -18.8733533 26.66489519 -19.5 23.375 C-18.7285319 18.1675903 -15.63085708 15.64892105 -12 12 C-11.50193848 11.49500977 -11.00387695 10.99001953 -10.49072266 10.46972656 C-7.02038501 6.95253467 -3.51973531 3.46771952 0 0 Z" transform="translate(87 253)"/><path fill="#B259AD" d="M0 0 C3.82097239 0.53069061 6.06171403 1.49701566 9 4 C8.67 5.65 8.34 7.3 8 9 C6.88625 9.226875 5.7725 9.45375 4.625 9.6875 C0.83961627 10.60623658 0.83961627 10.60623658 -0.4375 13.625 C-0.7159375 14.800625 -0.7159375 14.800625 -1 16 C0.65 16.33 2.3 16.66 4 17 C4 17.66 4 18.32 4 19 C6.64 19 9.28 19 12 19 C12 18.34 12 17.68 12 17 C13.98 16.67 15.96 16.34 18 16 C15.49984766 18.61379562 14.10672748 19.91384756 10.390625 20.203125 C-0.26800217 20.36220899 -0.26800217 20.36220899 -5 17 C-7.80541099 12.79188352 -6.85569482 10.90079759 -6 6 C-5.67 5.34 -5.34 4.68 -5 4 C-1.62456153 4.56257308 0.95883135 5.47941568 4 7 C4.99 7 5.98 7 7 7 C7 6.34 7 5.68 7 5 C3.535 3.02 3.535 3.02 0 1 C0 0.67 0 0.34 0 0 Z" transform="translate(340 252)"/><path fill="#A50FD8" d="M0 0 C0.66 0 1.32 0 2 0 C2 0.66 2 1.32 2 2 C3.32 2 4.64 2 6 2 C8.41847197 4.50484597 9 5.46013806 9 9 C8.01 9.66 7.02 10.32 6 11 C5.67 11.99 5.34 12.98 5 14 C5.99 14.33 6.98 14.66 8 15 C7.01 15.33 6.02 15.66 5 16 C4.67 17.98 4.34 19.96 4 22 C3.01 22.33 2.02 22.66 1 23 C1 21.35 1 19.7 1 18 C0.34 18 -0.32 18 -1 18 C-2.67692558 12.70444553 -2.67692558 12.70444553 -3 10 C-1.5625 7.8125 -1.5625 7.8125 0 6 C-0.3121764 3.35367713 -0.3121764 3.35367713 -1 1 C-0.67 0.67 -0.34 0.34 0 0 Z" transform="translate(43 258)"/><path fill="#BD5E92" d="M0 0 C1.93166016 0.01740234 1.93166016 0.01740234 3.90234375 0.03515625 C5.19269531 0.04417969 6.48304688 0.05320313 7.8125 0.0625 C8.81152344 0.07410156 9.81054688 0.08570313 10.83984375 0.09765625 C10.83984375 0.42765625 10.83984375 0.75765625 10.83984375 1.09765625 C4.40484375 1.59265625 4.40484375 1.59265625 -2.16015625 2.09765625 C-2.16015625 14.30765625 -2.16015625 26.51765625 -2.16015625 39.09765625 C-0.84015625 39.75765625 0.47984375 40.41765625 1.83984375 41.09765625 C2.49984375 40.43765625 3.15984375 39.77765625 3.83984375 39.09765625 C4.82984375 39.42765625 5.81984375 39.75765625 6.83984375 40.09765625 C6.83984375 34.48765625 6.83984375 28.87765625 6.83984375 23.09765625 C7.16984375 23.09765625 7.49984375 23.09765625 7.83984375 23.09765625 C7.83984375 29.36765625 7.83984375 35.63765625 7.83984375 42.09765625 C2.18952578 43.98109557 0.3543026 44.20054802 -5.16015625 43.09765625 C-5.25980927 32.16904173 -5.22240635 21.26724337 -4.72265625 10.34765625 C-4.68342041 9.43733643 -4.64418457 8.5270166 -4.60375977 7.58911133 C-4.23001511 0.1307174 -4.23001511 0.1307174 0 0 Z" transform="translate(276.16 227.902)"/><path fill="#BF5A9C" d="M0 0 C3.13670687 3.27928446 3.6249787 6.51154315 4.4609375 10.8046875 C5.13995742 13.56997152 6.35940565 15.68825342 8 18 C8.4125 17.175 8.825 16.35 9.25 15.5 C9.8275 14.675 10.405 13.85 11 13 C12.32 13 13.64 13 15 13 C15.33 12.34 15.66 11.68 16 11 C16.66 11.33 17.32 11.66 18 12 C17.69217504 13.64671412 17.37860766 15.29235576 17.0625 16.9375 C16.80146484 18.31228516 16.80146484 18.31228516 16.53515625 19.71484375 C16 22 16 22 15 23 C13.48071962 23.07179964 11.95832518 23.08392007 10.4375 23.0625 C9.61121094 23.05347656 8.78492188 23.04445313 7.93359375 23.03515625 C6.97646484 23.01775391 6.97646484 23.01775391 6 23 C4.9905304 19.91968584 3.99410379 16.8353041 3 13.75 C2.71382813 12.87730469 2.42765625 12.00460937 2.1328125 11.10546875 C1.72675781 9.83896484 1.72675781 9.83896484 1.3125 8.546875 C1.06113281 7.77182617 0.80976563 6.99677734 0.55078125 6.19824219 C0 4 0 4 0 0 Z" transform="translate(285 248)"/><path fill="#DD5594" d="M0 0 C0 0.99 0 1.98 0 3 C-1.2065625 4.11375 -1.2065625 4.11375 -2.4375 5.25 C-5.54140724 8.58102241 -5.41916551 10.60225317 -6 15 C-8 16.3125 -8 16.3125 -10 17 C-10.33 17.66 -10.66 18.32 -11 19 C-11.94875 19.103125 -12.8975 19.20625 -13.875 19.3125 C-17.16277264 19.68304859 -17.16277264 19.68304859 -18.8125 22.375 C-20.06538384 25.02465292 -20.06538384 25.02465292 -21 28 C-20.34 28 -19.68 28 -19 28 C-19.33 30.31 -19.66 32.62 -20 35 C-22.61513337 32.87520414 -23.86113839 31.55544643 -24.6875 28.25 C-22.99236236 20.23662205 -13.71711989 13.59162927 -8.0625 8 C-7.28326172 7.22527344 -6.50402344 6.45054687 -5.70117188 5.65234375 C-3.8030758 3.76589243 -1.90266851 1.88183755 0 0 Z" transform="translate(41 224)"/><path fill="#7D17DE" d="M0 0 C1 3 1 3 1.4375 6.125 C1.623125 7.07375 1.80875 8.0225 2 9 C2.66 9.33 3.32 9.66 4 10 C4 11.65 4 13.3 4 15 C1 15 1 15 -1.69921875 12.6640625 C-2.70314662 11.65880492 -3.6989775 10.64541032 -4.6875 9.625 C-5.19861328 9.11710937 -5.70972656 8.60921875 -6.23632812 8.0859375 C-10 4.26699141 -10 4.26699141 -10 2 C-6.7 1.34 -3.4 0.68 0 0 Z" transform="translate(35 260)"/><path fill="#682CD4" d="M0 0 C4.90521385 0.01767645 6.92755282 1.99005282 10.3125 5.375 C9.3225 5.375 8.3325 5.375 7.3125 5.375 C6.9825 5.045 6.6525 4.715 6.3125 4.375 C4.12610547 4.30241054 1.93749611 4.29126217 -0.25 4.3125 C-1.44753906 4.32152344 -2.64507812 4.33054688 -3.87890625 4.33984375 C-5.26916016 4.35724609 -5.26916016 4.35724609 -6.6875 4.375 C-7.54137105 7.68067489 -7.54137105 7.68067489 -7.6875 11.375 C-5.83317913 13.64644074 -5.83317913 13.64644074 -3.6875 15.375 C-3.6875 16.365 -3.6875 17.355 -3.6875 18.375 C-2.3675 18.375 -1.0475 18.375 0.3125 18.375 C0.7146875 19.5196875 0.7146875 19.5196875 1.125 20.6875 C2.25674112 23.24880884 3.22473401 24.57192938 5.3125 26.375 C4.9825 27.035 4.6525 27.695 4.3125 28.375 C2.16361324 26.25301168 0.01831417 24.12760401 -2.125 22 C-2.73666016 21.39671875 -3.34832031 20.7934375 -3.97851562 20.171875 C-4.56181641 19.59179688 -5.14511719 19.01171875 -5.74609375 18.4140625 C-6.28548584 17.87990723 -6.82487793 17.34575195 -7.38061523 16.79541016 C-9.48921441 14.50364292 -9.70324392 13.23592869 -10.0625 10.0625 C-9.59536625 5.46901813 -8.16709782 4.26052015 -4.6875 1.375 C-3.6875 0.375 -3.6875 0.375 0 0 Z" transform="translate(77.688 217.625)"/><path fill="#7A0DEB" d="M0 0 C2.39223697 2.39223697 2.6758631 3.67759676 3 7 C2.01 8.485 2.01 8.485 1 10 C0.97360171 12.29714187 0.97360171 12.29714187 1.375 14.6875 C1.48585938 15.49574219 1.59671875 16.30398437 1.7109375 17.13671875 C1.80632812 17.75160156 1.90171875 18.36648437 2 19 C1.34 19 0.68 19 0 19 C-0.33 19.66 -0.66 20.32 -1 21 C-3.5625 18.75 -3.5625 18.75 -6 16 C-6.09854168 12.94520778 -4.70407731 11.57853435 -2.9375 9.0625 C-0.91841126 5.87103715 -0.68752094 4.64558898 -1 1 C-0.67 0.67 -0.34 0.34 0 0 Z" transform="translate(86 226)"/><path fill="#D736A8" d="M0 0 C0.33 0 0.66 0 1 0 C1.83811779 6.70494229 1.83811779 6.70494229 -0.3828125 10.13671875 C-2.18169451 12.18090285 -4.05073083 14.09936124 -6 16 C-6.48597656 16.53238281 -6.97195312 17.06476563 -7.47265625 17.61328125 C-8.75 19 -8.75 19 -11 21 C-11.99 21 -12.98 21 -14 21 C-14.6875 18.6875 -14.6875 18.6875 -15 16 C-13.9375 14.1875 -13.9375 14.1875 -12 13 C-8.8125 12.8125 -8.8125 12.8125 -6 13 C-6 12.01 -6 11.02 -6 10 C-5.01 10 -4.02 10 -3 10 C-2.67 8.35 -2.34 6.7 -2 5 C-1.34 5 -0.68 5 0 5 C0 3.35 0 1.7 0 0 Z" transform="translate(111 248)"/><path fill="#C02DB4" d="M0 0 C2 1.5 2 1.5 4 4 C4.61089984 8.81083621 4.73857492 10.8428993 2.125 14.9375 C-0.01260116 17.01223054 -0.98327003 17.94895934 -3.9453125 18.09765625 C-5.96354167 18.06510417 -7.98177083 18.03255208 -10 18 C-7 16 -7 16 -4 16 C-3.79503906 15.38511719 -3.59007812 14.77023437 -3.37890625 14.13671875 C-2.25260417 10.7578125 -1.12630208 7.37890625 0 4 C0 2.68 0 1.36 0 0 Z" transform="translate(57 268)"/><path fill="#8F62D5" d="M0 0 C0.66 0 1.32 0 2 0 C2 10.23 2 20.46 2 31 C-0.75078884 31.91692961 -2.35948913 32.10886083 -5.1875 32.0625 C-6.445625 32.041875 -7.70375 32.02125 -9 32 C-9 31.67 -9 31.34 -9 31 C-6.69 31 -4.38 31 -2 31 C-0.8992924 27.6978772 -0.79372928 25.05916721 -0.68359375 21.58203125 C-0.64169922 20.32841797 -0.59980469 19.07480469 -0.55664062 17.78320312 C-0.51732422 16.47287109 -0.47800781 15.16253906 -0.4375 13.8125 C-0.39429008 12.47720022 -0.350675 11.14191348 -0.30664062 9.80664062 C-0.20043498 6.53786703 -0.09839003 3.26901667 0 0 Z" transform="translate(481 240)"/><path fill="#C014C8" d="M0 0 C1.98 0 3.96 0 6 0 C7.1233244 3.28356364 7.24383906 5.38858265 5.953125 8.625 C4.69157319 11.11975414 3.38639349 13.57261209 2 16 C1.67 14.68 1.34 13.36 1 12 C0.34 12 -0.32 12 -1 12 C-1.33 12.66 -1.66 13.32 -2 14 C-2 12.68 -2 11.36 -2 10 C-1.01 10 -0.02 10 1 10 C0.67 6.7 0.34 3.4 0 0 Z" transform="translate(51 268)"/><path fill="#DE33A6" d="M0 0 C0 0.33 0 0.66 0 1 C-1.65 1 -3.3 1 -5 1 C-5.33 1.99 -5.66 2.98 -6 4 C-6.66 4.66 -7.32 5.32 -8 6 C-7.814375 6.804375 -7.62875 7.60875 -7.4375 8.4375 C-7 11 -7 11 -8.125 12.875 C-10 14 -10 14 -12.6875 13.6875 C-13.450625 13.460625 -14.21375 13.23375 -15 13 C-12.32916089 3.53066132 -10.39957405 -0.69330494 0 0 Z" transform="translate(55 218)"/><path fill="#940FE1" d="M0 0 C2.75564971 0.07654583 4.44165334 0.45527156 6.44140625 2.40625 C7.67656183 3.89828979 8.84312275 5.44647913 10 7 C8.68 7 7.36 7 6 7 C6 6.34 6 5.68 6 5 C5.34 5.66 4.68 6.32 4 7 C4.309375 7.928125 4.309375 7.928125 4.625 8.875 C4.74875 9.57625 4.8725 10.2775 5 11 C3.0625 13.25 3.0625 13.25 1 15 C0.34 13.35 -0.32 11.7 -1 10 C-0.34 9.34 0.32 8.68 1 8 C0.34 5.69 -0.32 3.38 -1 1 C-0.67 0.67 -0.34 0.34 0 0 Z" transform="translate(39 253)"/><path fill="#936ADA" d="M0 0 C1.20970459 0.00523682 2.41940918 0.01047363 3.66577148 0.01586914 C4.97094727 0.0190918 6.27612305 0.02231445 7.62084961 0.02563477 C9.00952213 0.03399138 10.39819401 0.04245634 11.78686523 0.05102539 C13.17944179 0.05603873 14.57202005 0.06060193 15.96459961 0.06469727 C19.38456394 0.07653105 22.80444367 0.09301659 26.22436523 0.11352539 C27.47436523 6.61352539 27.47436523 6.61352539 25.22436523 11.11352539 C25.22436523 7.81352539 25.22436523 4.51352539 25.22436523 1.11352539 C16.31436523 1.11352539 7.40436523 1.11352539 -1.77563477 1.11352539 C-1.44563477 4.08352539 -1.11563477 7.05352539 -0.77563477 10.11352539 C2.19436523 10.60852539 2.19436523 10.60852539 5.22436523 11.11352539 C5.22436523 11.44352539 5.22436523 11.77352539 5.22436523 12.11352539 C-0.92797852 12.21118164 -0.92797852 12.21118164 -2.77563477 12.11352539 C-3.77563477 11.11352539 -3.77563477 11.11352539 -3.90844727 8.86352539 C-3.90586914 7.95602539 -3.90329102 7.04852539 -3.90063477 6.11352539 C-3.90321289 5.20602539 -3.90579102 4.29852539 -3.90844727 3.36352539 C-3.71090023 0.01684615 -3.39264563 0.13876156 0 0 Z" transform="translate(464.776 227.886)"/><path fill="#C56086" d="M0 0 C3.96 0 7.92 0 12 0 C12.66 2.64 13.32 5.28 14 8 C16.31 8.66 18.62 9.32 21 10 C21 10.33 21 10.66 21 11 C18.03 10.67 15.06 10.34 12 10 C10.50178941 6.62902617 10 4.79557881 10 1 C5.545 1.495 5.545 1.495 1 2 C0.01 4.64 -0.98 7.28 -2 10 C-2.99 9.67 -3.98 9.34 -5 9 C-4.67 7.68 -4.34 6.36 -4 5 C-3.01 5 -2.02 5 -1 5 C-0.67 3.35 -0.34 1.7 0 0 Z" transform="translate(234 261)"/><path fill="#DD6394" d="M0 0 C0 0.99 0 1.98 0 3 C-1.33333333 4.33333333 -2.66666667 5.66666667 -4 7 C-4 7.99 -4 8.98 -4 10 C-4.825 10.804375 -5.65 11.60875 -6.5 12.4375 C-9.46554923 14.88052115 -9.46554923 14.88052115 -9 19 C-13 19 -13 19 -16 18 C-11.37338295 11.26695568 -5.86878323 5.66001228 0 0 Z" transform="translate(87 253)"/><path fill="#B952C1" d="M0 0 C0.99 0 1.98 0 3 0 C3.46417129 9.81636321 3.46417129 9.81636321 1.75 14.1875 C1.1725 14.785625 0.595 15.38375 0 16 C-1.32 16 -2.64 16 -4 16 C-2.125 11.125 -2.125 11.125 -1 10 C-0.76712992 8.31816052 -0.58735834 6.6287584 -0.4375 4.9375 C-0.31181641 3.55884766 -0.31181641 3.55884766 -0.18359375 2.15234375 C-0.12300781 1.44207031 -0.06242187 0.73179687 0 0 Z" transform="translate(358 251)"/><path fill="#A760AA" d="M0 0 C1.6045556 0.14148989 3.20863767 0.28835686 4.8125 0.4375 C5.70582031 0.51871094 6.59914063 0.59992188 7.51953125 0.68359375 C10 1 10 1 13 2 C14.02095523 4.35999701 14.09196987 5.647556 13.44140625 8.140625 C13.15136719 8.83671875 12.86132812 9.5328125 12.5625 10.25 C12.27503906 10.95640625 11.98757813 11.6628125 11.69140625 12.390625 C11.46324219 12.92171875 11.23507812 13.4528125 11 14 C9.35 13.67 7.7 13.34 6 13 C6.9590625 12.7215625 6.9590625 12.7215625 7.9375 12.4375 C10.42126213 11.05753944 10.42126213 11.05753944 10.75 7.375 C10.8325 6.26125 10.915 5.1475 11 4 C10.37351562 3.93941406 9.74703125 3.87882813 9.1015625 3.81640625 C8.28429687 3.73261719 7.46703125 3.64882812 6.625 3.5625 C5.40683594 3.44068359 5.40683594 3.44068359 4.1640625 3.31640625 C2 3 2 3 0 2 C0 1.34 0 0.68 0 0 Z" transform="translate(348 227)"/><path fill="#A71DCD" d="M0 0 C2 0 4 0 6 0 C6 1.65 6 3.3 6 5 C7.32 4.01 8.64 3.02 10 2 C10.33 2.99 10.66 3.98 11 5 C11.99 4.67 12.98 4.34 14 4 C14 5.32 14 6.64 14 8 C11.5 9 11.5 9 8 9 C4.96320027 6.65981383 2.4239093 3.96529006 0 1 C0 0.67 0 0.34 0 0 Z" transform="translate(38 276)"/><path fill="#D5567E" d="M0 0 C0.33 0.99 0.66 1.98 1 3 C0.071875 3.556875 0.071875 3.556875 -0.875 4.125 C-3.5510596 6.48622906 -4.0936844 8.60131652 -5 12 C-4.34 12 -3.68 12 -3 12 C-3.33 14.31 -3.66 16.62 -4 19 C-6.61513337 16.87520414 -7.86113839 15.55544643 -8.6875 12.25 C-7.56399574 6.93888897 -3.74525776 3.74525776 0 0 Z" transform="translate(25 240)"/><path fill="#9E60B0" d="M0 0 C1.23026927 4.01773252 0.32427317 6.0271805 -1 10 C-1.48810017 15.17386182 -0.51544008 19.09568713 1.24609375 23.88671875 C1.96719182 25.90803511 2.51432233 27.91111447 3 30 C-0.77472631 26.85439474 -2.28561324 23.78021757 -3 19 C-3.60387406 11.90183126 -2.93893701 6.49015256 0 0 Z" transform="translate(377 236)"/><path fill="#E15D62" d="M0 0 C2.09755188 7.41425637 -0.71276072 15.8115337 -3 23 C-3.66 23 -4.32 23 -5 23 C-5.33 25.31 -5.66 27.62 -6 30 C-7.36138702 26.25914524 -6.62045822 23.69427153 -5.56640625 19.921875 C-5.24736328 18.76171875 -4.92832031 17.6015625 -4.59960938 16.40625 C-4.25736328 15.1996875 -3.91511719 13.993125 -3.5625 12.75 C-3.22412109 11.52796875 -2.88574219 10.3059375 -2.53710938 9.046875 C-1.70004483 6.02872678 -0.8540441 3.01337917 0 0 Z" transform="translate(134 230)"/><path fill="#E66E87" d="M0 0 C0 0.99 0 1.98 0 3 C-0.33 3.33 -0.66 3.66 -1 4 C-1.25003964 7.45821402 -1.25003964 7.45821402 -1 11 C-0.34 11.66 0.32 12.32 1 13 C1.33 13.66 1.66 14.32 2 15 C0.02 15.99 0.02 15.99 -2 17 C-4.68456699 13.19686343 -5.76026048 10.65659544 -5 6 C-3.51365124 3.73435033 -1.88350567 1.97768095 0 0 Z" transform="translate(73 267)"/><path fill="#E3616C" d="M0 0 C1 1 1 1 1.0625 4.0625 C1.041875 5.031875 1.02125 6.00125 1 7 C-1 3.25 -1 3.25 -1 1 C-3.97 1 -6.94 1 -10 1 C-10.66 3.97 -11.32 6.94 -12 10 C-12.99 9.67 -13.98 9.34 -15 9 C-14.34 9 -13.68 9 -13 9 C-13.020625 8.071875 -13.04125 7.14375 -13.0625 6.1875 C-13 3 -13 3 -12 0 C-7.70513628 -0.75791713 -4.22307326 -1.24208037 0 0 Z" transform="translate(148 261)"/><path fill="#E65E66" d="M0 0 C0.66 0 1.32 0 2 0 C4.28571429 8.42857143 4.28571429 8.42857143 4 13 C3.67 12.34 3.34 11.68 3 11 C1.02 11 -0.96 11 -3 11 C-3.66 8.69 -4.32 6.38 -5 4 C-4.01 4 -3.02 4 -2 4 C-2.33 5.65 -2.66 7.3 -3 9 C-1.35 9 0.3 9 2 9 C1.34 6.03 0.68 3.06 0 0 Z" transform="translate(143 244)"/><path fill="#D54F9B" d="M0 0 C-3.3 3.3 -6.6 6.6 -10 10 C-10.66 9.67 -11.32 9.34 -12 9 C-11.34 7.35 -10.68 5.7 -10 4 C-8.68 4 -7.36 4 -6 4 C-6.33 3.01 -6.66 2.02 -7 1 C-3.375 -1.125 -3.375 -1.125 0 0 Z" transform="translate(97 272)"/><path fill="#8A25D6" d="M0 0 C3.59905908 0.55550695 4.99909799 1.74887248 7.25 4.5625 C8.03117187 5.52349609 8.03117187 5.52349609 8.828125 6.50390625 C9.21484375 6.99761719 9.6015625 7.49132812 10 8 C7.525 7.01 7.525 7.01 5 6 C4.67 7.65 4.34 9.3 4 11 C1.6870518 8.6870518 1.50419025 7.52095125 0.875 4.375 C0.70742187 3.55773437 0.53984375 2.74046875 0.3671875 1.8984375 C0.24601562 1.27195313 0.12484375 0.64546875 0 0 Z" transform="translate(86 224)"/><path fill="#760BED" d="M0 0 C1.0013988 3.00419641 1.51421457 5.87709365 2 9 C1.443125 8.525625 0.88625 8.05125 0.3125 7.5625 C-2.18346074 5.87604004 -4.0446237 5.41046893 -7 5 C-7.33 4.01 -7.66 3.02 -8 2 C-5.36 1.34 -2.72 0.68 0 0 Z" transform="translate(35 260)"/><path fill="#C8319E" d="M0 0 C0.33 0 0.66 0 1 0 C1.602537 6.98942918 1.602537 6.98942918 -0.11328125 9.8671875 C-1.33745588 11.30861002 -2.66278229 12.66278229 -4 14 C-4.66 13.67 -5.32 13.34 -6 13 C-6 12.01 -6 11.02 -6 10 C-5.01 10 -4.02 10 -3 10 C-2.67 8.35 -2.34 6.7 -2 5 C-1.34 5 -0.68 5 0 5 C0 3.35 0 1.7 0 0 Z" transform="translate(111 248)"/><path fill="#D43AA3" d="M0 0 C0.33 0.99 0.66 1.98 1 3 C1.66 3.33 2.32 3.66 3 4 C0.13301658 7.49413605 -1.84150148 9.28836874 -6.3125 9.8125 C-8.1378125 9.9053125 -8.1378125 9.9053125 -10 10 C-10.66 9.01 -11.32 8.02 -12 7 C-8.7 7 -5.4 7 -2 7 C-2 6.34 -2 5.68 -2 5 C-1.34 5 -0.68 5 0 5 C0 3.35 0 1.7 0 0 Z" transform="translate(33 252)"/><path fill="#9E61B5" d="M0 0 C0.33 0.66 0.66 1.32 1 2 C-0.32064453 2.12955078 -0.32064453 2.12955078 -1.66796875 2.26171875 C-9.11684764 2.82356024 -9.11684764 2.82356024 -15.1875 6.625 C-15.785625 7.40875 -16.38375 8.1925 -17 9 C-17.66 9 -18.32 9 -19 9 C-17.74753876 5.10345393 -15.3327178 3.68109325 -11.80078125 1.81640625 C-7.89570145 0.04599046 -4.23559621 -0.12101703 0 0 Z" transform="translate(397 227)"/><path fill="#A15AC1" d="M0 0 C-4.88941253 4.21032746 -7.88196035 5.14629 -14.25 5.0625 C-15.14203125 5.05347656 -16.0340625 5.04445313 -16.953125 5.03515625 C-17.62859375 5.02355469 -18.3040625 5.01195312 -19 5 C-19 4.67 -19 4.34 -19 4 C-18.39671875 3.96261719 -17.7934375 3.92523438 -17.171875 3.88671875 C-12.55180076 3.50668039 -9.52201132 3.25108738 -6 0 C-3 -1 -3 -1 0 0 Z" transform="translate(408 267)"/><path fill="#8E5FCD" d="M0 0 C0.33 0 0.66 0 1 0 C1.33 3.3 1.66 6.6 2 10 C4.97 10.495 4.97 10.495 8 11 C8 11.33 8 11.66 8 12 C1.84765625 12.09765625 1.84765625 12.09765625 0 12 C-1 11 -1 11 -1.1328125 8.75 C-1.13023437 7.8425 -1.12765625 6.935 -1.125 6 C-1.12757813 5.0925 -1.13015625 4.185 -1.1328125 3.25 C-1 1 -1 1 0 0 Z" transform="translate(462 228)"/><path fill="#D81FB0" d="M0 0 C1.98 0.66 3.96 1.32 6 2 C6 4.31 6 6.62 6 9 C5.34 9 4.68 9 4 9 C0 3.70588235 0 3.70588235 0 0 Z" transform="translate(53 221)"/><path fill="#A361A9" d="M0 0 C2.49455917 3.74183875 2.37606522 5.56243036 2 10 C-0.30232558 15.65116279 -0.30232558 15.65116279 -3 17 C-2.49396008 14.83125748 -2.00016187 13.00032373 -1 11 C-0.7724985 9.12943209 -0.59037189 7.25314042 -0.4375 5.375 C-0.31181641 3.87066406 -0.31181641 3.87066406 -0.18359375 2.3359375 C-0.12300781 1.56507813 -0.06242187 0.79421875 0 0 Z" transform="translate(361 251)"/><path fill="#AA5EA9" d="M0 0 C-3.84866751 2.69122691 -6.44580333 3.38872751 -11.125 3.3125 C-12.15882813 3.30863281 -13.19265625 3.30476563 -14.2578125 3.30078125 C-17 3 -17 3 -20 1 C-18.0625 0.4375 -18.0625 0.4375 -16 0 C-15.67 0.33 -15.34 0.66 -15 1 C-13.48530552 1.23192865 -11.96245438 1.41215238 -10.4375 1.5625 C-9.61121094 1.64628906 -8.78492188 1.73007812 -7.93359375 1.81640625 C-7.29550781 1.87699219 -6.65742188 1.93757813 -6 2 C-6 1.34 -6 0.68 -6 0 C-3 -1 -3 -1 0 0 Z" transform="translate(358 269)"/><path fill="#A830C6" d="M0 0 C1.17825358 0.90172468 2.34231577 1.82201502 3.5 2.75 C4.1496875 3.26046875 4.799375 3.7709375 5.46875 4.296875 C7 6 7 6 7 10 C6.67 9.34 6.34 8.68 6 8 C5.34 8 4.68 8 4 8 C3.67 7.34 3.34 6.68 3 6 C2.01 5.67 1.02 5.34 0 5 C0 3.35 0 1.7 0 0 Z" transform="translate(96 232)"/><path fill="#9515C7" d="M0 0 C0.66 0.33 1.32 0.66 2 1 C1.1875 3.375 1.1875 3.375 -1 6 C-4.62024449 7.06257913 -8.25624237 7.57413962 -12 8 C-12 7.34 -12 6.68 -12 6 C-10.4221875 5.9071875 -10.4221875 5.9071875 -8.8125 5.8125 C-4.3708265 4.86591384 -2.88406243 3.40843742 0 0 Z" transform="translate(36 255)"/><path fill="#C81AB7" d="M0 0 C0.8353125 1.0209375 0.8353125 1.0209375 1.6875 2.0625 C0.635625 2.02125 -0.41625 1.98 -1.5 1.9375 C-5.05260173 2.05397875 -7.16116641 2.53458068 -10.3125 4.0625 C-8.02869366 -0.62531302 -8.02869366 -0.62531302 -4.875 -2 C-2.3125 -1.9375 -2.3125 -1.9375 0 0 Z" transform="translate(105.313 242.938)"/><path fill="#E74681" d="M0 0 C-0.61277612 2.96175123 -1.25372522 4.38058783 -3 7 C-4.32 6.67 -5.64 6.34 -7 6 C-5.52522876 2.59668175 -4.14385429 0 0 0 Z" transform="translate(28 242)"/><path fill="#A861A7" d="M0 0 C1.79887229 0.90244429 3.58890815 1.82251786 5.375 2.75 C6.87160156 3.51570312 6.87160156 3.51570312 8.3984375 4.296875 C11.06579125 6.04307055 11.93652905 7.05303231 13 10 C12.31292969 9.57847656 11.62585938 9.15695313 10.91796875 8.72265625 C10.01691406 8.17480469 9.11585938 7.62695312 8.1875 7.0625 C7.29417969 6.51722656 6.40085937 5.97195312 5.48046875 5.41015625 C2.99296438 3.88990422 2.99296438 3.88990422 0 3 C0 2.01 0 1.02 0 0 Z" transform="translate(348 241)"/><path fill="#BF51BE" d="M0 0 C2 0 2 0 3.625 1.375 C5 3 5 3 5 5 C1.7 4.67 -1.6 4.34 -5 4 C-5 3.34 -5 2.68 -5 2 C-4.01 1.67 -3.02 1.34 -2 1 C-1.67 1.33 -1.34 1.66 -1 2 C-0.67 1.34 -0.34 0.68 0 0 Z" transform="translate(344 236)"/><path fill="#721FD4" d="M0 0 C0.99 0.33 1.98 0.66 3 1 C3 1.66 3 2.32 3 3 C4.65 3 6.3 3 8 3 C8 4.98 8 6.96 8 9 C6.84775972 8.07038578 5.70340824 7.1309875 4.5625 6.1875 C3.60537109 5.40439453 3.60537109 5.40439453 2.62890625 4.60546875 C1 3 1 3 0 0 Z" transform="translate(25 262)"/><path fill="#AC0FCF" d="M0 0 C0.66 0 1.32 0 2 0 C2 0.66 2 1.32 2 2 C2.66 2 3.32 2 4 2 C4 2.66 4 3.32 4 4 C3.236875 4.268125 2.47375 4.53625 1.6875 4.8125 C-0.87380884 5.94424112 -2.19692938 6.91223401 -4 9 C-3.67 7.02 -3.34 5.04 -3 3 C-2.34 3 -1.68 3 -1 3 C-0.67 2.01 -0.34 1.02 0 0 Z" transform="translate(98 238)"/><path fill="#9E5AC9" d="M0 0 C2 2 2 2 2.23046875 4.42578125 C2.21628906 5.37839844 2.20210938 6.33101562 2.1875 7.3125 C2.18105469 8.25738281 2.17460937 9.20226562 2.16796875 10.17578125 C2.00747977 12.87423557 1.59933915 15.36770247 1 18 C0.67 18 0.34 18 0 18 C0.01160156 17.08476562 0.02320313 16.16953125 0.03515625 15.2265625 C0.04417969 14.03804687 0.05320312 12.84953125 0.0625 11.625 C0.07410156 10.44164062 0.08570313 9.25828125 0.09765625 8.0390625 C0.21466593 5.08078479 0.21466593 5.08078479 -1 3 C-0.67 2.01 -0.34 1.02 0 0 Z" transform="translate(411 238)"/><path fill="#E35C6C" d="M0 0 C2.1991413 4.39828259 2.51855059 7.18550592 3 12 C1.68 11.34 0.36 10.68 -1 10 C-0.67 6.7 -0.34 3.4 0 0 Z" transform="translate(153 233)"/><path fill="#DD5D7B" d="M0 0 C0.33 0 0.66 0 1 0 C1.33 5.94 1.66 11.88 2 18 C1.01 18.33 0.02 18.66 -1 19 C-0.67 12.73 -0.34 6.46 0 0 Z" transform="translate(198 229)"/><path fill="#8C22D1" d="M0 0 C0.433125 0.45375 0.86625 0.9075 1.3125 1.375 C3.10798342 3.20024334 3.10798342 3.20024334 6 5 C4.35 5.33 2.7 5.66 1 6 C-0.32 4.35 -1.64 2.7 -3 1 C-2.01 0.67 -1.02 0.34 0 0 Z" transform="translate(86 245)"/><path fill="#B039BB" d="M0 0 C1.14926266 0.95421808 2.29430541 1.91352045 3.4375 2.875 C4.07558594 3.40867187 4.71367188 3.94234375 5.37109375 4.4921875 C7 6 7 6 8 8 C6.35 8 4.7 8 3 8 C1.92474806 5.34771188 0.90543849 2.71631546 0 0 Z" transform="translate(49 260)"/><path fill="#9736BD" d="M0 0 C3.7952131 1.49097658 5.61042731 3.75700849 8 7 C4 7 4 7 2.3125 5.75 C0.87148345 3.8286446 0.40501203 2.34906978 0 0 Z" transform="translate(41 253)"/><path fill="#D924AF" d="M0 0 C2.475 0.99 2.475 0.99 5 2 C4.67 3.65 4.34 5.3 4 7 C2.35 7 0.7 7 -1 7 C-0.34 6.34 0.32 5.68 1 5 C0.67 4.01 0.34 3.02 0 2 C0 1.34 0 0.68 0 0 Z" transform="translate(52 230)"/><path fill="#D77B8F" d="M0 0 C0 3.63306931 -1.07932067 4.97123644 -3 8 C-3.68096422 9.32608822 -4.35330586 10.65686601 -5 12 C-5.35338623 9.03155565 -5.5417682 6.84401782 -3.88671875 4.265625 C-2.64496832 2.79651181 -1.32662082 1.39295186 0 0 Z" transform="translate(73 267)"/><path fill="#BC3FA1" d="M0 0 C0.33 0 0.66 0 1 0 C1.61538462 7.26153846 1.61538462 7.26153846 -1.5 11 C-2.325 11.66 -3.15 12.32 -4 13 C-4 11.68 -4 10.36 -4 9 C-3.01 9 -2.02 9 -1 9 C-0.67 6.03 -0.34 3.06 0 0 Z" transform="translate(60 224)"/><path fill="#CA46A0" d="M0 0 C2.00841268 0.01421885 4.01537247 0.13420475 6.01953125 0.265625 C6.01953125 0.595625 6.01953125 0.925625 6.01953125 1.265625 C4.36953125 1.265625 2.71953125 1.265625 1.01953125 1.265625 C0.68953125 2.255625 0.35953125 3.245625 0.01953125 4.265625 C-1.63046875 4.265625 -3.28046875 4.265625 -4.98046875 4.265625 C-3.72152968 1.74774686 -2.88459378 0.38688832 0 0 Z" transform="translate(48.98 217.734)"/><path fill="#D235B6" d="M0 0 C0.66 0.33 1.32 0.66 2 1 C1.34 2.98 0.68 4.96 0 7 C-1.65 6.67 -3.3 6.34 -5 6 C-5 5.34 -5 4.68 -5 4 C-4.01 3.67 -3.02 3.34 -2 3 C-1.34 2.01 -0.68 1.02 0 0 Z" transform="translate(93 247)"/><path fill="#D93EAC" d="M0 0 C0.99 0.495 0.99 0.495 2 1 C2 1.99 2 2.98 2 4 C3.32 3.67 4.64 3.34 6 3 C6 3.66 6 4.32 6 5 C4.02 5.66 2.04 6.32 0 7 C0 4.69 0 2.38 0 0 Z" transform="translate(36 248)"/><path fill="#9122CD" d="M0 0 C2 0 4 0 6 0 C6 1.98 6 3.96 6 6 C3.97945196 4.35830472 1.97956942 2.69088222 0 1 C0 0.67 0 0.34 0 0 Z" transform="translate(38 276)"/><path fill="#C65C84" d="M0 0 C0.98120464 3.05263664 0.98120464 4.94736336 0 8 C0.99 8.33 1.98 8.66 3 9 C2.01 9.66 1.02 10.32 0 11 C-1.89885096 9.10114904 -1.12367506 6.42752097 -1.1328125 3.91015625 C-1 2 -1 2 0 0 Z" transform="translate(237 245)"/><path fill="#8A5CD4" d="M0 0 C0.33 1.32 0.66 2.64 1 4 C-2.21451269 5.60725635 -5.43612536 5.05748185 -9 5 C-9 4.67 -9 4.34 -9 4 C-6.69 4 -4.38 4 -2 4 C-1.34 2.68 -0.68 1.36 0 0 Z" transform="translate(481 267)"/><path fill="#E23390" d="M0 0 C0.66 0 1.32 0 2 0 C1.67 2.64 1.34 5.28 1 8 C0.01 7.67 -0.98 7.34 -2 7 C-1.34 4.69 -0.68 2.38 0 0 Z" transform="translate(32 249)"/><path fill="#590EF4" d="M0 0 C0.99 0.33 1.98 0.66 3 1 C1.35 2.98 -0.3 4.96 -2 7 C-2.6875 5.1875 -2.6875 5.1875 -3 3 C-1.5625 1.25 -1.5625 1.25 0 0 Z" transform="translate(73 221)"/><path fill="#D73CA1" d="M0 0 C1.2065625 0.0309375 1.2065625 0.0309375 2.4375 0.0625 C0.79580472 2.08304804 -0.87161778 4.08293058 -2.5625 6.0625 C-2.8925 6.0625 -3.2225 6.0625 -3.5625 6.0625 C-3.605221 4.39638095 -3.60313832 2.72867115 -3.5625 1.0625 C-2.5625 0.0625 -2.5625 0.0625 0 0 Z" transform="translate(45.563 221.938)"/></svg>